<svg version="1.1" id="Layer_1" xmlns="http://www.w3.org/2000/svg" xmlns:xlink="http://www.w3.org/1999/xlink" x="0px" y="0px"
	 width="100%" viewBox="0 0 500 500" enable-background="new 0 0 500 500" xml:space="preserve">
<path fill="#E7E7E7" opacity="1.000000" stroke="none" 
	d="
M1.000000,500.000000 
	C1.000000,333.737549 1.000000,167.475082 1.000000,1.000000 
	C167.024841,1.000000 333.049774,1.000000 499.655579,1.210622 
	C500.441986,1.678801 500.696503,1.871719 501.000000,2.000000 
	C501.000000,167.691574 501.000000,333.383148 500.789764,499.656860 
	C500.311066,500.435394 500.117889,500.689026 500.000000,501.000000 
	C334.308411,501.000000 168.616852,501.000000 2.345804,500.788422 
	C1.558733,500.321014 1.303290,500.128723 1.000000,500.000000 
M95.511116,239.914093 
	C94.875755,241.449417 94.432838,243.104324 93.567635,244.496841 
	C91.297325,248.150879 87.897377,247.353317 84.690758,246.252869 
	C81.466293,245.146332 81.908661,242.752716 82.781876,240.097321 
	C83.919472,236.637985 84.885666,233.101410 85.619392,229.535065 
	C86.706696,224.250092 83.621559,218.358078 78.726593,216.443085 
	C70.301651,213.147156 57.447830,214.133148 52.668854,226.794708 
	C49.792553,234.415268 47.009583,242.089020 44.631908,249.875427 
	C41.429119,260.363953 46.574959,270.716736 57.212551,273.388062 
	C68.697189,276.272095 80.503609,276.412506 92.094360,272.973755 
	C93.175194,272.653076 94.542267,272.004425 95.387787,272.380890 
	C105.143578,276.724792 115.437119,274.398682 125.485062,275.010742 
	C132.817017,275.457397 139.650330,273.927917 146.175461,270.523712 
	C147.551300,269.805939 150.247208,269.460815 151.106644,270.261780 
	C156.587982,275.370422 163.194427,275.102600 169.895493,275.023712 
	C180.337372,274.900757 190.885086,275.992767 200.615341,270.488037 
	C202.039993,269.682037 205.268387,270.194214 206.561096,271.339386 
	C213.192795,277.214325 226.487534,275.811005 232.129059,269.342804 
	C234.326553,266.823303 236.376938,266.365051 238.675522,269.164612 
	C243.390259,274.906891 250.298950,277.015137 256.056091,273.617310 
	C264.083221,268.879791 270.307587,271.735962 277.949768,273.753998 
	C285.771088,275.819336 294.447876,275.169189 302.713654,274.826141 
	C307.493378,274.627747 312.186371,272.623352 316.948364,271.566864 
	C318.736023,271.170227 320.950165,270.416534 322.389343,271.081665 
	C336.513184,277.609131 350.855194,276.136536 365.134155,272.244232 
	C368.936951,271.207642 371.970154,270.743835 375.511078,272.838837 
	C377.682800,274.123749 380.483795,274.818146 383.031982,274.905090 
	C390.686371,275.166229 398.367950,275.278137 406.015808,274.934418 
	C417.903656,274.400177 434.247284,265.069427 437.957642,251.584503 
	C439.667999,245.368225 441.714996,239.234009 443.855316,233.149109 
	C446.928802,224.411240 442.808228,215.672531 433.776581,215.407288 
	C420.188751,215.008301 406.094086,212.152451 393.184692,219.745697 
	C391.744781,220.592636 388.570343,220.440994 387.371704,219.401596 
	C382.811768,215.447388 377.619812,214.807266 371.984467,214.965805 
	C366.491211,215.120316 360.986389,215.129440 355.493622,214.966873 
	C348.433594,214.757919 341.586945,215.294205 335.019928,218.313309 
	C333.645538,218.945175 331.562683,218.228912 329.851685,217.898727 
	C325.192444,216.999588 320.592926,215.430328 315.904724,215.125076 
	C308.605560,214.649841 301.250488,214.893051 293.923431,215.043259 
	C290.132874,215.120956 286.357056,215.769791 282.564575,215.946136 
	C279.171722,216.103912 275.609894,216.609772 272.395538,215.832840 
	C264.674774,213.966751 257.799530,214.931152 252.062134,220.547623 
	C249.502853,223.052979 247.607620,223.548523 245.104614,220.650314 
	C239.426346,214.075562 232.180527,214.057983 224.505432,215.973557 
	C222.762024,216.408676 220.927933,216.886932 219.168762,216.783112 
	C210.913391,216.295990 202.671921,215.579071 194.420975,215.009476 
	C187.141876,214.506989 180.282715,215.856552 173.596741,218.977005 
	C171.609482,219.904480 168.130859,219.692291 166.281509,218.515625 
	C156.518646,212.303802 145.799179,214.054749 138.708130,223.433533 
	C137.679184,224.794434 136.250336,225.852997 134.987061,227.070251 
	C134.156677,226.281891 133.606491,226.007202 133.474503,225.597702 
	C130.771744,217.212250 124.497932,214.427109 116.388741,215.056229 
	C108.408867,215.675308 102.617744,219.516235 99.994347,227.450027 
	C98.690216,231.394043 97.207878,235.279129 95.511116,239.914093 
M92.878265,286.362030 
	C91.118446,286.585449 89.358620,286.808868 86.857521,287.126404 
	C89.355087,289.649933 92.013741,289.767822 94.273888,287.999146 
	C96.681091,286.115387 96.867615,283.477386 94.501945,280.747772 
	C94.055519,282.719696 93.695190,284.311310 92.878265,286.362030 
M379.956207,283.866241 
	C379.083008,285.303619 378.209808,286.740967 377.131073,288.516693 
	C379.139038,288.389587 380.951263,288.274872 384.526703,288.048553 
	C382.488831,285.859222 381.282837,284.563568 379.956207,283.866241 
M98.681396,280.051422 
	C98.247513,284.099609 101.623970,280.064880 101.836533,280.784607 
	C101.481369,280.671631 100.428978,280.336792 98.681396,280.051422 
M355.168060,281.490448 
	C355.882111,281.560120 356.596161,281.629822 357.310211,281.699524 
	C357.337311,281.364838 357.364410,281.030182 357.391510,280.695496 
	C355.983856,280.601105 354.576172,280.506714 353.168518,280.412323 
	C353.613739,280.802612 354.058990,281.192902 355.168060,281.490448 
M69.297920,281.437653 
	C67.913177,281.050446 66.528427,280.663269 65.143677,280.276093 
	C65.166183,280.733093 65.188683,281.190125 65.211182,281.647156 
	C66.555374,281.727020 67.899559,281.806885 69.297920,281.437653 
M345.873474,283.350922 
	C346.444092,283.662720 347.014740,283.974487 347.585358,284.286285 
	C347.530762,283.391327 347.786804,281.964691 347.356293,281.713165 
	C346.485840,281.204620 345.221710,281.164307 344.165497,281.296143 
	C343.817352,281.339539 343.609497,282.507416 343.337494,283.161102 
	C344.055145,283.082642 344.772797,283.004181 345.873474,283.350922 
M339.829865,286.380951 
	C339.958099,287.180237 340.086334,287.979523 340.214569,288.778809 
	C340.907593,287.882782 341.600647,286.986755 342.293701,286.090729 
	C341.583740,285.996826 340.873810,285.902893 339.829865,286.380951 
M370.693146,280.697052 
	C370.580414,281.981445 370.467651,283.265839 370.354919,284.550232 
	C370.888672,284.523163 371.422394,284.496094 371.956146,284.469025 
	C371.758301,283.217377 371.560455,281.965729 370.693146,280.697052 
M89.185753,281.082092 
	C88.414635,281.974030 87.643524,282.865997 86.872406,283.757935 
	C87.310608,284.049591 87.748817,284.341217 88.187019,284.632843 
	C88.725319,283.456146 89.263618,282.279480 89.185753,281.082092 
M372.981628,283.418610 
	C373.504578,283.737122 374.027557,284.055634 374.550507,284.374176 
	C374.560608,283.516235 374.570679,282.658264 374.580780,281.800354 
	C374.052704,282.111420 373.524628,282.422485 372.981628,283.418610 
M369.731049,286.587555 
	C369.616516,287.149902 369.501984,287.712280 369.387451,288.274658 
	C369.790100,288.281403 370.192719,288.288147 370.595337,288.294891 
	C370.500092,287.729279 370.404846,287.163635 369.731049,286.587555 
M346.565460,288.316437 
	C346.294891,288.035370 346.024353,287.754303 345.753784,287.473236 
	C345.638123,287.585083 345.415497,287.787720 345.422302,287.795746 
	C345.672760,288.091034 345.944489,288.368286 346.565460,288.316437 
M352.595306,287.827484 
	C352.206390,287.824463 351.817169,287.816620 351.429688,287.838867 
	C351.416351,287.839600 351.420258,288.140869 351.416138,288.302063 
	C351.808685,288.306763 352.201233,288.311493 352.595306,287.827484 
M383.012512,280.608948 
	C382.745300,280.810089 382.478088,281.011261 382.210876,281.212402 
	C382.401215,281.408722 382.591522,281.605072 382.781830,281.801422 
	C382.978149,281.528290 383.174438,281.255127 383.012512,280.608948 
M377.641571,281.476196 
	C377.847473,281.529388 378.053375,281.582581 378.259277,281.635773 
	C378.127319,281.506134 377.995392,281.376526 377.641571,281.476196 
M372.363983,288.462280 
	C372.363983,288.462280 372.558258,288.570099 372.558258,288.570099 
	C372.558258,288.570099 372.526978,288.342712 372.363983,288.462280 
z"/>
<path fill="#F0F0F0" opacity="1.000000" stroke="none" 
	d="
M1.000000,500.500000 
	C1.303290,500.128723 1.558733,500.321014 1.883166,500.788422 
	C1.666667,501.000000 1.333333,501.000000 1.000000,500.500000 
z"/>
<path fill="#F0F0F0" opacity="1.000000" stroke="none" 
	d="
M500.500000,501.000000 
	C500.117889,500.689026 500.311066,500.435394 500.789764,500.119507 
	C501.000000,500.333344 501.000000,500.666656 500.500000,501.000000 
z"/>
<path fill="#F0F0F0" opacity="1.000000" stroke="none" 
	d="
M501.000000,1.500000 
	C500.696503,1.871719 500.441986,1.678801 500.118225,1.210622 
	C500.333344,1.000000 500.666656,1.000000 501.000000,1.500000 
z"/>
<path fill="#E2E2E2" opacity="1.000000" stroke="none" 
	d="
M95.658638,239.552475 
	C97.207878,235.279129 98.690216,231.394043 99.994347,227.450027 
	C102.617744,219.516235 108.408867,215.675308 116.388741,215.056229 
	C124.497932,214.427109 130.771744,217.212250 133.474503,225.597702 
	C133.606491,226.007202 134.156677,226.281891 134.987061,227.070251 
	C136.250336,225.852997 137.679184,224.794434 138.708130,223.433533 
	C145.799179,214.054749 156.518646,212.303802 166.281509,218.515625 
	C168.130859,219.692291 171.609482,219.904480 173.596741,218.977005 
	C180.282715,215.856552 187.141876,214.506989 194.420975,215.009476 
	C202.671921,215.579071 210.913391,216.295990 219.168762,216.783112 
	C220.927933,216.886932 222.762024,216.408676 224.505432,215.973557 
	C232.180527,214.057983 239.426346,214.075562 245.104614,220.650314 
	C247.607620,223.548523 249.502853,223.052979 252.062134,220.547623 
	C257.799530,214.931152 264.674774,213.966751 272.395538,215.832840 
	C275.609894,216.609772 279.171722,216.103912 282.564575,215.946136 
	C286.357056,215.769791 290.132874,215.120956 293.923431,215.043259 
	C301.250488,214.893051 308.605560,214.649841 315.904724,215.125076 
	C320.592926,215.430328 325.192444,216.999588 329.851685,217.898727 
	C331.562683,218.228912 333.645538,218.945175 335.019928,218.313309 
	C341.586945,215.294205 348.433594,214.757919 355.493622,214.966873 
	C360.986389,215.129440 366.491211,215.120316 371.984467,214.965805 
	C377.619812,214.807266 382.811768,215.447388 387.371704,219.401596 
	C388.570343,220.440994 391.744781,220.592636 393.184692,219.745697 
	C406.094086,212.152451 420.188751,215.008301 433.776581,215.407288 
	C442.808228,215.672531 446.928802,224.411240 443.855316,233.149109 
	C441.714996,239.234009 439.667999,245.368225 437.957642,251.584503 
	C434.247284,265.069427 417.903656,274.400177 406.015808,274.934418 
	C398.367950,275.278137 390.686371,275.166229 383.031982,274.905090 
	C380.483795,274.818146 377.682800,274.123749 375.511078,272.838837 
	C371.970154,270.743835 368.936951,271.207642 365.134155,272.244232 
	C350.855194,276.136536 336.513184,277.609131 322.389343,271.081665 
	C320.950165,270.416534 318.736023,271.170227 316.948364,271.566864 
	C312.186371,272.623352 307.493378,274.627747 302.713654,274.826141 
	C294.447876,275.169189 285.771088,275.819336 277.949768,273.753998 
	C270.307587,271.735962 264.083221,268.879791 256.056091,273.617310 
	C250.298950,277.015137 243.390259,274.906891 238.675522,269.164612 
	C236.376938,266.365051 234.326553,266.823303 232.129059,269.342804 
	C226.487534,275.811005 213.192795,277.214325 206.561096,271.339386 
	C205.268387,270.194214 202.039993,269.682037 200.615341,270.488037 
	C190.885086,275.992767 180.337372,274.900757 169.895493,275.023712 
	C163.194427,275.102600 156.587982,275.370422 151.106644,270.261780 
	C150.247208,269.460815 147.551300,269.805939 146.175461,270.523712 
	C139.650330,273.927917 132.817017,275.457397 125.485062,275.010742 
	C115.437119,274.398682 105.143578,276.724792 95.387787,272.380890 
	C94.542267,272.004425 93.175194,272.653076 92.094360,272.973755 
	C80.503609,276.412506 68.697189,276.272095 57.212551,273.388062 
	C46.574959,270.716736 41.429119,260.363953 44.631908,249.875427 
	C47.009583,242.089020 49.792553,234.415268 52.668854,226.794708 
	C57.447830,214.133148 70.301651,213.147156 78.726593,216.443085 
	C83.621559,218.358078 86.706696,224.250092 85.619392,229.535065 
	C84.885666,233.101410 83.919472,236.637985 82.781876,240.097321 
	C81.908661,242.752716 81.466293,245.146332 84.690758,246.252869 
	C87.897377,247.353317 91.297325,248.150879 93.567635,244.496841 
	C94.432838,243.104324 94.875755,241.449417 95.658638,239.552475 
M125.886894,221.198563 
	C120.226074,215.268906 107.176712,217.655914 103.008545,228.529068 
	C100.877335,234.088577 99.145699,239.825729 96.637444,245.204666 
	C95.572144,247.489197 92.978508,250.627457 91.078537,250.628098 
	C87.202797,250.629395 83.258774,248.943344 79.511742,247.510727 
	C78.824997,247.248154 78.500023,244.802231 78.767784,243.523209 
	C79.443153,240.297104 80.870407,237.214737 81.409248,233.977051 
	C82.146210,229.548935 83.753593,224.646439 77.942535,221.106750 
	C71.415977,215.008728 59.801472,218.306534 56.046181,227.541595 
	C53.293247,234.311646 50.849365,241.215164 48.481915,248.132477 
	C44.393303,260.078827 49.883541,269.608368 62.197624,271.817413 
	C71.955894,273.567963 81.585670,273.484741 91.052956,269.691864 
	C93.265541,268.805420 96.233101,269.472229 98.789085,269.854187 
	C102.353752,270.386871 105.828850,271.518341 109.393394,272.052521 
	C121.938759,273.932739 134.160858,273.433807 145.508286,266.801361 
	C148.653122,264.963257 151.512634,265.056244 154.520828,267.811035 
	C156.614456,269.728241 159.513824,271.349670 162.279724,271.849152 
	C175.320267,274.204224 188.048950,273.250122 200.055267,266.996155 
	C203.353546,265.278107 206.176529,265.758575 209.104401,268.427185 
	C212.548401,271.566223 216.699066,272.535126 221.602829,271.416046 
	C226.674332,270.258698 229.613190,267.317444 232.128555,263.097595 
	C233.171661,261.347656 235.427338,259.986420 237.420319,259.343445 
	C238.006363,259.154358 239.957260,261.880310 240.636520,263.535492 
	C242.927155,269.117004 245.572693,271.495911 251.585098,270.825897 
	C255.344910,270.406952 258.880890,268.187012 262.585999,266.987305 
	C264.644012,266.320923 267.815216,264.966125 268.825562,265.839966 
	C277.307831,273.176025 287.532532,273.138824 297.610382,272.836731 
	C304.091400,272.642487 310.857941,272.496521 316.404846,267.619446 
	C317.757233,266.430359 321.524231,266.383942 323.191284,267.413971 
	C334.914551,274.657379 347.469452,274.270782 359.717468,270.593903 
	C367.354004,268.301422 374.097839,265.649506 380.893829,271.732910 
	C381.004669,271.832153 381.204163,271.845825 381.366669,271.871918 
	C392.834229,273.714386 404.396484,273.904877 415.227753,269.592407 
	C425.760071,265.398956 434.095795,258.486206 436.072083,246.139893 
	C436.685883,242.305450 437.849243,238.425491 439.506989,234.919037 
	C443.108185,227.301788 440.928192,220.463577 433.257629,218.715576 
	C420.702942,215.854553 408.143219,215.931854 396.373322,221.938034 
	C391.695404,224.325165 387.536713,225.387085 382.883392,221.201950 
	C381.335358,220.338486 379.877197,218.997849 378.225159,218.686646 
	C364.345306,216.072113 350.601288,216.151321 337.055878,220.879272 
	C334.420197,221.799240 331.261719,222.360626 328.601410,221.820786 
	C323.861115,220.858871 319.353973,217.792160 314.683167,217.640366 
	C304.636322,217.313812 294.352844,217.261505 284.555420,219.133728 
	C279.426392,220.113846 275.065033,220.473419 270.283417,218.956146 
	C262.832489,216.591904 256.594391,219.202469 252.448502,225.963638 
	C251.051590,228.241745 249.022827,230.132401 246.808228,232.764160 
	C245.255463,230.398788 243.966812,229.036774 243.365509,227.419205 
	C240.193497,218.886139 235.232834,216.571472 226.333725,218.926788 
	C222.913040,219.832138 218.800674,220.519516 215.609406,219.467712 
	C203.888123,215.604523 192.164536,216.032532 180.913208,219.829010 
	C173.309555,222.394653 167.353210,224.744736 159.418564,219.400467 
	C152.324051,214.622070 143.032547,220.209351 139.371796,229.409958 
	C137.406906,234.348343 135.938004,239.522385 133.536713,244.228531 
	C132.668976,245.929138 129.733841,246.574860 127.742104,247.701950 
	C127.337036,245.783524 126.355965,243.772278 126.647003,241.966019 
	C127.249992,238.223770 129.275696,234.594742 129.296753,230.911041 
	C129.313934,227.901199 127.270241,224.879608 125.886894,221.198563 
z"/>
<path fill="#D9D9D9" opacity="1.000000" stroke="none" 
	d="
M93.106567,286.132477 
	C93.695190,284.311310 94.055519,282.719696 94.501945,280.747772 
	C96.867615,283.477386 96.681091,286.115387 94.273888,287.999146 
	C92.013741,289.767822 89.355087,289.649933 86.857521,287.126404 
	C89.358620,286.808868 91.118446,286.585449 93.106567,286.132477 
z"/>
<path fill="#CBCBCB" opacity="1.000000" stroke="none" 
	d="
M380.016541,283.567078 
	C381.282837,284.563568 382.488831,285.859222 384.526703,288.048553 
	C380.951263,288.274872 379.139038,288.389587 377.131073,288.516693 
	C378.209808,286.740967 379.083008,285.303619 380.016541,283.567078 
z"/>
<path fill="#050505" opacity="1.000000" stroke="none" 
	d="
M99.028992,280.026672 
	C100.428978,280.336792 101.481369,280.671631 101.836533,280.784607 
	C101.623970,280.064880 98.247513,284.099609 99.028992,280.026672 
z"/>
<path fill="#050505" opacity="1.000000" stroke="none" 
	d="
M354.836151,281.536804 
	C354.058990,281.192902 353.613739,280.802612 353.168518,280.412323 
	C354.576172,280.506714 355.983856,280.601105 357.391510,280.695496 
	C357.364410,281.030182 357.337311,281.364838 357.310211,281.699524 
	C356.596161,281.629822 355.882111,281.560120 354.836151,281.536804 
z"/>
<path fill="#050505" opacity="1.000000" stroke="none" 
	d="
M69.270828,281.662201 
	C67.899559,281.806885 66.555374,281.727020 65.211182,281.647156 
	C65.188683,281.190125 65.166183,280.733093 65.143677,280.276093 
	C66.528427,280.663269 67.913177,281.050446 69.270828,281.662201 
z"/>
<path fill="#D9D9D9" opacity="1.000000" stroke="none" 
	d="
M345.681946,283.138306 
	C344.772797,283.004181 344.055145,283.082642 343.337494,283.161133 
	C343.609497,282.507416 343.817352,281.339539 344.165497,281.296143 
	C345.221710,281.164307 346.485840,281.204620 347.356293,281.713165 
	C347.786804,281.964691 347.530762,283.391327 347.585358,284.286285 
	C347.014740,283.974487 346.444092,283.662720 345.681946,283.138306 
z"/>
<path fill="#D9D9D9" opacity="1.000000" stroke="none" 
	d="
M339.996857,286.094971 
	C340.873810,285.902893 341.583740,285.996826 342.293701,286.090729 
	C341.600647,286.986755 340.907593,287.882782 340.214569,288.778809 
	C340.086334,287.979523 339.958099,287.180237 339.996857,286.094971 
z"/>
<path fill="#CBCBCB" opacity="1.000000" stroke="none" 
	d="
M371.027893,280.705566 
	C371.560455,281.965729 371.758301,283.217377 371.956146,284.469025 
	C371.422394,284.496094 370.888672,284.523163 370.354919,284.550232 
	C370.467651,283.265839 370.580414,281.981445 371.027893,280.705566 
z"/>
<path fill="#D9D9D9" opacity="1.000000" stroke="none" 
	d="
M89.493835,281.092438 
	C89.263618,282.279480 88.725319,283.456146 88.187019,284.632843 
	C87.748817,284.341217 87.310608,284.049591 86.872406,283.757935 
	C87.643524,282.865997 88.414635,281.974030 89.493835,281.092438 
z"/>
<path fill="#CBCBCB" opacity="1.000000" stroke="none" 
	d="
M372.989075,283.076111 
	C373.524628,282.422485 374.052704,282.111420 374.580780,281.800354 
	C374.570679,282.658264 374.560608,283.516235 374.550507,284.374176 
	C374.027557,284.055634 373.504578,283.737122 372.989075,283.076111 
z"/>
<path fill="#CBCBCB" opacity="1.000000" stroke="none" 
	d="
M370.020325,286.592773 
	C370.404846,287.163635 370.500092,287.729279 370.595337,288.294922 
	C370.192719,288.288147 369.790100,288.281403 369.387451,288.274658 
	C369.501984,287.712280 369.616516,287.149902 370.020325,286.592773 
z"/>
<path fill="#D9D9D9" opacity="1.000000" stroke="none" 
	d="
M346.389404,288.482239 
	C345.944489,288.368286 345.672760,288.091034 345.422302,287.795746 
	C345.415497,287.787720 345.638123,287.585083 345.753784,287.473236 
	C346.024353,287.754303 346.294891,288.035370 346.389404,288.482239 
z"/>
<path fill="#D9D9D9" opacity="1.000000" stroke="none" 
	d="
M352.594543,288.071838 
	C352.201233,288.311493 351.808685,288.306763 351.416138,288.302063 
	C351.420258,288.140869 351.416351,287.839600 351.429688,287.838867 
	C351.817169,287.816620 352.206390,287.824463 352.594543,288.071838 
z"/>
<path fill="#CBCBCB" opacity="1.000000" stroke="none" 
	d="
M383.191650,280.795471 
	C383.174438,281.255127 382.978149,281.528290 382.781830,281.801422 
	C382.591522,281.605072 382.401215,281.408722 382.210876,281.212402 
	C382.478088,281.011261 382.745300,280.810089 383.191650,280.795471 
z"/>
<path fill="#CBCBCB" opacity="1.000000" stroke="none" 
	d="
M377.752502,281.361542 
	C377.995392,281.376526 378.127319,281.506134 378.259277,281.635773 
	C378.053375,281.582581 377.847473,281.529388 377.752502,281.361542 
z"/>
<path fill="#CBCBCB" opacity="1.000000" stroke="none" 
	d="
M372.445496,288.402496 
	C372.526978,288.342712 372.558258,288.570099 372.558258,288.570099 
	C372.558258,288.570099 372.363983,288.462280 372.445496,288.402496 
z"/>
<path fill="#D9D9D9" opacity="1.000000" stroke="none" 
	d="
M383.132355,221.869873 
	C387.536713,225.387085 391.695404,224.325165 396.373322,221.938034 
	C408.143219,215.931854 420.702942,215.854553 433.257629,218.715576 
	C440.928192,220.463577 443.108185,227.301788 439.506989,234.919037 
	C437.849243,238.425491 436.685883,242.305450 436.072083,246.139893 
	C434.095795,258.486206 425.760071,265.398956 415.227753,269.592407 
	C404.396484,273.904877 392.834229,273.714386 381.366669,271.871918 
	C381.204163,271.845825 381.004669,271.832153 380.893829,271.732910 
	C374.097839,265.649506 367.354004,268.301422 359.717468,270.593903 
	C347.469452,274.270782 334.914551,274.657379 323.191284,267.413971 
	C321.524231,266.383942 317.757233,266.430359 316.404846,267.619446 
	C310.857941,272.496521 304.091400,272.642487 297.610382,272.836731 
	C287.532532,273.138824 277.307831,273.176025 268.825562,265.839966 
	C267.815216,264.966125 264.644012,266.320923 262.585999,266.987305 
	C258.880890,268.187012 255.344910,270.406952 251.585098,270.825897 
	C245.572693,271.495911 242.927155,269.117004 240.636520,263.535492 
	C239.957260,261.880310 238.006363,259.154358 237.420319,259.343445 
	C235.427338,259.986420 233.171661,261.347656 232.128555,263.097595 
	C229.613190,267.317444 226.674332,270.258698 221.602829,271.416046 
	C216.699066,272.535126 212.548401,271.566223 209.104401,268.427185 
	C206.176529,265.758575 203.353546,265.278107 200.055267,266.996155 
	C188.048950,273.250122 175.320267,274.204224 162.279724,271.849152 
	C159.513824,271.349670 156.614456,269.728241 154.520828,267.811035 
	C151.512634,265.056244 148.653122,264.963257 145.508286,266.801361 
	C134.160858,273.433807 121.938759,273.932739 109.393394,272.052521 
	C105.828850,271.518341 102.353752,270.386871 98.789085,269.854187 
	C96.233101,269.472229 93.265541,268.805420 91.052956,269.691864 
	C81.585670,273.484741 71.955894,273.567963 62.197624,271.817413 
	C49.883541,269.608368 44.393303,260.078827 48.481915,248.132477 
	C50.849365,241.215164 53.293247,234.311646 56.046181,227.541595 
	C59.801472,218.306534 71.415977,215.008728 78.013695,221.505798 
	C78.084854,221.904861 77.990585,222.010071 77.525551,222.005249 
	C74.063744,221.995178 71.040840,222.235367 68.077118,221.919769 
	C64.710876,221.561295 62.663731,222.644089 61.587887,226.045441 
	C60.504292,226.719330 59.384003,227.197037 59.086105,227.985474 
	C55.988789,236.183182 52.121998,244.234604 50.275291,252.719803 
	C48.423599,261.227936 53.917355,267.453400 62.464016,268.878998 
	C72.596642,270.569183 82.558716,271.062561 92.001274,265.659241 
	C93.539917,264.778778 96.077957,264.922455 97.916809,265.438416 
	C101.820732,266.533783 105.478935,269.043274 109.396606,269.452148 
	C122.051125,270.772858 134.769760,270.894775 145.904617,263.311371 
	C149.487747,260.871063 152.494049,260.617004 156.008148,263.300354 
	C156.725845,263.799835 157.352386,263.979187 158.047134,264.504059 
	C160.543884,266.225922 162.844299,268.369537 165.430573,268.801422 
	C169.458008,269.473969 173.694992,268.756653 177.815567,269.035797 
	C185.501999,269.556519 192.688461,268.101898 199.089798,263.832489 
	C202.695053,261.427917 206.080444,260.406097 209.973923,263.271790 
	C210.348206,263.762177 210.666916,263.967560 211.049561,264.515289 
	C216.519165,270.875153 224.380371,270.184296 228.823425,263.272491 
	C230.157242,261.197510 231.196899,258.905457 232.711472,256.980499 
	C235.864517,252.973038 239.291367,253.241516 242.219879,257.340363 
	C243.006287,258.441040 244.298508,259.180328 245.283936,260.489502 
	C245.467590,261.986053 245.725845,263.078613 246.052521,264.528259 
	C249.375946,268.976501 254.884766,269.136719 260.068268,265.291046 
	C266.531006,260.496338 266.525452,260.504364 273.036438,265.008850 
	C282.048950,271.243988 292.146362,270.146362 302.243073,269.456879 
	C307.843231,269.074432 312.798553,267.847290 315.342957,262.227844 
	C317.205109,258.115356 319.129700,258.764313 322.050079,261.388031 
	C325.191925,264.210693 328.612518,267.846832 332.412842,268.600800 
	C343.530121,270.806305 354.689301,270.563507 365.398590,265.506500 
	C368.816223,263.892639 372.954010,263.803955 376.856079,263.302551 
	C377.294769,263.780487 377.639679,263.973297 378.047913,264.510803 
	C379.723297,266.166168 381.182556,268.332489 382.971466,268.651764 
	C397.022583,271.159393 410.852509,270.963470 422.847321,261.902008 
	C426.268066,259.317780 429.487885,255.636978 431.097839,251.753464 
	C432.350159,248.732635 435.350891,244.569046 431.287354,240.673218 
	C431.499634,239.587601 431.699066,238.809753 432.254883,237.983719 
	C434.310272,235.417313 436.098358,232.950058 437.602417,230.320343 
	C437.804382,229.967163 436.573303,228.794388 436.025177,227.578369 
	C436.490692,225.607910 436.936859,224.060257 437.538361,221.973816 
	C429.973145,221.973816 422.879364,222.051682 415.788177,221.949509 
	C409.971588,221.865692 404.167938,221.622192 398.819824,224.803040 
	C398.104736,225.096466 397.573975,225.600739 396.880219,226.351624 
	C396.168091,226.801590 395.618927,227.004974 394.884644,226.950928 
	C393.176575,227.854706 391.653656,229.015900 390.095276,230.111954 
	C390.059814,230.046799 390.171906,230.144012 389.775269,230.099518 
	C386.882446,228.633667 384.386200,227.212311 381.899292,225.476273 
	C382.216248,224.164856 382.523926,223.168121 382.906677,222.095932 
	C382.981812,222.020477 383.132355,221.869873 383.132355,221.869873 
z"/>
<path fill="#D9D9D9" opacity="1.000000" stroke="none" 
	d="
M126.140251,221.863220 
	C127.270241,224.879608 129.313934,227.901199 129.296753,230.911041 
	C129.275696,234.594742 127.249992,238.223770 126.647003,241.966019 
	C126.355965,243.772278 127.337036,245.783524 127.742104,247.701950 
	C129.733841,246.574860 132.668976,245.929138 133.536713,244.228531 
	C135.938004,239.522385 137.406906,234.348343 139.371796,229.409958 
	C143.032547,220.209351 152.324051,214.622070 159.418564,219.400467 
	C167.353210,224.744736 173.309555,222.394653 180.913208,219.829010 
	C192.164536,216.032532 203.888123,215.604523 215.609406,219.467712 
	C218.800674,220.519516 222.913040,219.832138 226.333725,218.926788 
	C235.232834,216.571472 240.193497,218.886139 243.365509,227.419205 
	C243.966812,229.036774 245.255463,230.398788 246.808228,232.764160 
	C249.022827,230.132401 251.051590,228.241745 252.448502,225.963638 
	C256.594391,219.202469 262.832489,216.591904 270.283417,218.956146 
	C275.065033,220.473419 279.426392,220.113846 284.555420,219.133728 
	C294.352844,217.261505 304.636322,217.313812 314.683167,217.640366 
	C319.353973,217.792160 323.861115,220.858871 328.601410,221.820786 
	C331.261719,222.360626 334.420197,221.799240 337.055878,220.879272 
	C350.601288,216.151321 364.345306,216.072113 378.225159,218.686646 
	C379.877197,218.997849 381.335358,220.338486 383.007874,221.535919 
	C383.132355,221.869873 382.981812,222.020477 382.459534,222.043213 
	C378.296753,221.986237 374.656250,221.906509 370.883667,221.457214 
	C365.195007,220.828781 359.639221,220.541626 354.079834,220.378098 
	C353.729065,220.367783 353.349945,221.321472 352.545959,221.892731 
	C346.746277,223.309036 341.384674,224.659286 335.618835,226.006516 
	C332.055573,225.978943 328.896484,225.954422 325.812012,225.471008 
	C326.000183,224.092758 326.113831,223.173416 326.260040,221.990494 
	C312.401611,221.990494 298.839233,221.900482 285.281952,222.122833 
	C283.848541,222.146347 282.445190,224.004608 280.592285,225.014023 
	C277.847076,225.002701 275.537415,224.989044 273.259277,224.592560 
	C272.928467,223.474716 272.608185,222.131149 272.197113,222.102753 
	C269.386261,221.908600 266.529419,222.231964 263.739532,221.921097 
	C260.406250,221.549713 258.359100,222.576294 257.389252,226.019806 
	C254.909866,228.693100 252.927383,231.473709 250.573990,233.893616 
	C246.014282,238.582123 242.756577,237.599564 240.809387,231.336090 
	C240.321472,229.766632 239.104630,228.423767 238.262054,226.569260 
	C238.628922,224.872925 238.956528,223.584122 239.362640,221.986450 
	C235.228241,221.986450 231.784683,221.786285 228.383163,222.077438 
	C226.859161,222.207901 225.419434,223.322922 223.559235,224.055145 
	C220.856094,224.405060 218.535141,224.690994 216.246658,224.588654 
	C215.624191,223.466492 214.983124,222.109314 214.312256,222.094406 
	C207.043823,221.933029 199.760254,221.745178 192.502914,222.065552 
	C188.318771,222.250229 184.174988,223.349213 179.799500,223.801086 
	C178.242691,223.957962 176.619568,223.997955 175.604492,224.803848 
	C171.165070,228.328506 166.641327,229.033783 161.805267,225.470306 
	C161.988510,224.094910 162.100342,223.176697 162.245193,221.987503 
	C158.306046,221.987503 154.637970,221.699600 151.054016,222.123322 
	C149.532333,222.303207 148.187042,223.975052 146.423828,225.027802 
	C144.390152,227.791962 142.549164,230.418365 141.028748,233.218826 
	C137.923019,238.939240 135.283173,244.942963 131.764664,250.386047 
	C130.956192,251.636719 127.138229,251.829056 125.127892,251.186386 
	C122.730133,250.419891 121.459213,248.142609 122.699371,245.112015 
	C123.814445,242.387100 124.871246,239.487961 125.111488,236.595703 
	C125.377296,233.395721 124.686127,230.116226 124.490158,226.524231 
	C124.999054,224.831940 125.429504,223.486801 125.929947,222.071960 
	C125.999931,222.002258 126.140251,221.863220 126.140251,221.863220 
z"/>
<path fill="#D9D9D9" opacity="1.000000" stroke="none" 
	d="
M78.130432,221.850891 
	C83.753593,224.646439 82.146210,229.548935 81.409248,233.977051 
	C80.870407,237.214737 79.443153,240.297104 78.767784,243.523209 
	C78.500023,244.802231 78.824997,247.248154 79.511742,247.510727 
	C83.258774,248.943344 87.202797,250.629395 91.078537,250.628098 
	C92.978508,250.627457 95.572144,247.489197 96.637444,245.204666 
	C99.145699,239.825729 100.877335,234.088577 103.008545,228.529068 
	C107.176712,217.655914 120.226074,215.268906 126.013573,221.530884 
	C126.140251,221.863220 125.999931,222.002258 125.474991,222.025116 
	C121.490875,222.027435 117.990791,221.687241 114.590012,222.122681 
	C112.917183,222.336884 111.428207,223.987000 109.515968,225.043945 
	C108.303535,226.034271 107.071388,226.820145 106.617073,227.925674 
	C103.609596,235.244049 100.980614,242.726120 97.740089,249.935379 
	C96.815567,251.992218 94.273781,253.322113 92.208420,254.613052 
	C87.971092,254.110077 83.998947,253.979385 79.928024,253.526443 
	C72.773849,248.677902 74.005516,247.926651 75.743156,240.576935 
	C76.078880,239.156891 77.367302,237.912521 77.523987,236.509766 
	C77.877243,233.347214 81.052444,229.931137 77.022202,226.631378 
	C77.356506,224.844528 77.673538,223.427307 77.990585,222.010071 
	C77.990585,222.010071 78.084854,221.904861 78.130432,221.850891 
z"/>
<path fill="#040404" opacity="1.000000" stroke="none" 
	d="
M371.015778,221.826782 
	C374.656250,221.906509 378.296753,221.986237 382.384399,222.118683 
	C382.523926,223.168121 382.216248,224.164856 381.631287,225.728180 
	C380.342163,229.441910 379.660004,232.944504 374.550903,232.094177 
	C370.103577,232.013809 366.118835,231.948593 362.136597,232.021545 
	C342.710907,232.377380 347.400574,228.832657 340.282959,247.593018 
	C338.049530,253.479889 338.608246,254.083282 345.453369,253.901367 
	C348.255829,253.920578 350.619629,253.873917 353.354156,253.904083 
	C358.145294,253.842606 358.931549,250.679031 359.864838,247.161133 
	C357.567291,247.161133 355.775787,247.161133 353.599121,247.089539 
	C352.845032,246.352478 352.060913,245.597504 352.181610,245.037628 
	C352.623199,242.989395 353.366180,241.006119 354.327820,238.732544 
	C360.382965,238.445374 366.105957,238.424042 372.020996,238.680542 
	C373.449768,240.893875 375.929504,242.980438 375.715729,244.739685 
	C374.574127,254.133865 365.021820,263.300598 355.696289,263.896545 
	C348.064087,264.384277 340.372437,264.163208 332.715454,263.953461 
	C328.584076,263.840302 322.028290,257.634827 323.152039,254.800400 
	C327.025574,245.029816 328.132935,233.982101 336.023041,226.009552 
	C341.384674,224.659286 346.746277,223.309036 353.008545,221.975281 
	C359.611389,221.936798 365.313599,221.881775 371.015778,221.826782 
z"/>
<path fill="#040404" opacity="1.000000" stroke="none" 
	d="
M431.898468,238.031906 
	C431.699066,238.809753 431.499634,239.587601 431.104828,240.999329 
	C430.444580,242.871033 429.965729,244.103806 429.516998,245.347458 
	C425.476990,256.544220 414.804901,264.003845 402.822784,264.035919 
	C394.543304,264.058075 386.263977,264.121277 377.984558,264.166107 
	C377.639679,263.973297 377.294769,263.780487 377.037506,262.974762 
	C378.193726,259.617371 379.262299,256.872894 380.450104,253.822235 
	C383.699585,253.822235 386.840302,253.822235 390.444275,253.904434 
	C396.238434,253.988129 401.570007,253.938263 406.900024,254.008331 
	C410.757141,254.058990 412.634155,252.167374 413.071411,248.183487 
	C404.879852,248.183487 396.930054,248.183487 388.548645,248.116623 
	C386.392975,248.049759 384.668823,248.049759 381.597076,248.049759 
	C384.807861,241.345078 387.489868,235.744537 390.171875,230.144012 
	C390.171906,230.144012 390.059814,230.046799 390.418579,230.046112 
	C392.208160,229.099731 393.638977,228.154037 395.069794,227.208359 
	C395.618927,227.004974 396.168091,226.801590 397.179047,226.337555 
	C398.095306,225.722534 398.549744,225.368195 399.004181,225.013870 
	C404.167938,221.622192 409.971588,221.865692 415.788177,221.949509 
	C422.879364,222.051682 429.973145,221.973816 437.538361,221.973816 
	C436.936859,224.060257 436.490692,225.607910 435.761169,227.836960 
	C435.007538,232.708313 431.743927,231.967941 428.555176,232.095795 
	C421.276276,232.013885 414.460449,232.061127 407.645721,231.996185 
	C403.660889,231.958206 401.659607,233.811111 401.344757,237.828415 
	C409.748962,237.828415 417.883881,237.828415 426.434448,237.894318 
	C428.532898,237.984131 430.215698,238.008026 431.898468,238.031906 
z"/>
<path fill="#040404" opacity="1.000000" stroke="none" 
	d="
M180.013031,224.036682 
	C184.174988,223.349213 188.318771,222.250229 192.502914,222.065552 
	C199.760254,221.745178 207.043823,221.933029 214.312256,222.094406 
	C214.983124,222.109314 215.624191,223.466492 216.058990,224.914124 
	C215.073135,231.578461 211.152145,232.791931 205.547577,232.095581 
	C199.109421,232.015823 193.133301,232.096481 187.160828,231.983627 
	C183.177948,231.908401 180.987259,233.607651 180.496872,237.827179 
	C187.810822,237.827179 194.911530,237.827179 202.456406,237.895096 
	C205.523697,237.963013 208.146790,237.963013 211.338867,237.963013 
	C210.223816,241.109772 209.304642,243.736374 208.363083,246.354935 
	C204.895996,255.997284 193.585754,263.974457 183.368729,264.015839 
	C174.905411,264.050110 166.442200,264.109985 157.978943,264.158508 
	C157.352386,263.979187 156.725845,263.799835 156.248413,263.030548 
	C159.422668,254.201355 159.422699,254.202545 168.007797,253.945847 
	C168.333527,253.936111 168.657257,253.859161 169.444305,253.895889 
	C175.269531,253.925293 180.632385,253.872360 186.367004,253.892609 
	C190.508179,254.023697 191.891830,251.691574 192.466232,248.182678 
	C189.211700,248.182678 186.104141,248.182678 182.535522,248.110367 
	C177.376846,248.088684 172.679230,248.139297 167.568970,248.121124 
	C165.263519,248.052338 163.370728,248.052338 162.055420,248.052338 
	C163.670395,236.609955 169.298523,228.324142 180.013031,224.036682 
z"/>
<path fill="#050505" opacity="1.000000" stroke="none" 
	d="
M257.718567,225.964127 
	C258.359100,222.576294 260.406250,221.549713 263.739532,221.921097 
	C266.529419,222.231964 269.386261,221.908600 272.197113,222.102753 
	C272.608185,222.131149 272.928467,223.474716 273.077209,224.916992 
	C269.307220,235.752533 265.750763,245.880829 262.016968,256.319702 
	C260.291199,258.380035 259.062134,260.933777 257.124390,261.703583 
	C253.634918,263.089813 249.720825,263.407227 245.984100,264.171143 
	C245.725845,263.078613 245.467590,261.986053 245.509735,260.240845 
	C246.249649,258.071167 246.689163,256.554199 247.390060,254.804962 
	C248.309723,252.493820 248.968002,250.414932 249.613144,248.377518 
	C243.450256,246.922256 236.871857,250.518005 231.856842,244.051590 
	C230.457352,248.236221 229.322540,251.629425 228.011551,255.348633 
	C226.761490,258.412262 225.687592,261.149933 224.501785,264.172913 
	C219.913879,264.172913 215.449768,264.172913 210.985641,264.172913 
	C210.666916,263.967560 210.348206,263.762177 210.213074,263.002625 
	C214.911575,249.629349 219.426514,236.810257 223.941452,223.991165 
	C225.419434,223.322922 226.859161,222.207901 228.383163,222.077438 
	C231.784683,221.786285 235.228241,221.986450 239.362640,221.986450 
	C238.956528,223.584122 238.628922,224.872925 238.076233,226.893173 
	C236.580872,231.276199 235.310608,234.927795 233.991470,238.719925 
	C253.377274,240.025284 253.377716,240.025421 257.699219,226.457855 
	C257.747375,226.306580 257.713928,226.129272 257.718567,225.964127 
z"/>
<path fill="#C9C9C9" opacity="1.000000" stroke="none" 
	d="
M246.052536,264.528259 
	C249.720825,263.407227 253.634918,263.089813 257.124390,261.703583 
	C259.062134,260.933777 260.291199,258.380035 262.385071,256.308105 
	C265.618591,254.990204 268.306732,253.994522 270.994141,253.404724 
	C271.013214,258.921753 275.704163,263.351135 282.101196,264.546448 
	C287.323914,265.478516 292.434174,266.442444 297.553040,266.490570 
	C300.363556,266.516998 303.188599,265.000061 306.425781,264.107117 
	C308.479126,264.035248 310.113800,264.035248 311.769592,264.035248 
	C312.980804,260.651733 314.079407,257.582825 315.285797,254.212753 
	C312.568481,254.066330 310.291962,253.943665 308.021698,253.477310 
	C308.690460,251.483078 309.352905,249.832550 310.427612,248.112839 
	C317.895020,248.752472 315.686096,242.302002 318.399567,238.993591 
	C315.180939,238.730179 312.619568,238.520554 310.079163,237.989624 
	C312.072021,235.840622 314.043854,234.012939 316.443970,232.117264 
	C322.078857,233.271271 324.528503,230.499298 325.737427,225.929901 
	C328.896484,225.954422 332.055573,225.978943 335.618835,226.006500 
	C328.132935,233.982101 327.025574,245.029816 323.152039,254.800400 
	C322.028290,257.634827 328.584076,263.840302 332.715454,263.953461 
	C340.372437,264.163208 348.064087,264.384277 355.696289,263.896545 
	C365.021820,263.300598 374.574127,254.133865 375.715729,244.739685 
	C375.929504,242.980438 373.449768,240.893875 372.090576,238.318909 
	C372.983582,235.843994 373.999084,234.008499 375.014618,232.173019 
	C379.660004,232.944504 380.342163,229.441910 381.621948,226.042877 
	C384.386200,227.212311 386.882446,228.633667 389.775269,230.099518 
	C387.489868,235.744537 384.807861,241.345078 381.597076,248.049759 
	C384.668823,248.049759 386.392975,248.049759 388.560303,248.477997 
	C389.329315,250.544907 389.655151,252.183563 389.980988,253.822235 
	C386.840302,253.822235 383.699585,253.822235 380.450104,253.822235 
	C379.262299,256.872894 378.193726,259.617371 376.943726,262.689636 
	C372.954010,263.803955 368.816223,263.892639 365.398590,265.506500 
	C354.689301,270.563507 343.530121,270.806305 332.412842,268.600800 
	C328.612518,267.846832 325.191925,264.210693 322.050079,261.388031 
	C319.129700,258.764313 317.205109,258.115356 315.342957,262.227844 
	C312.798553,267.847290 307.843231,269.074432 302.243073,269.456879 
	C292.146362,270.146362 282.048950,271.243988 273.036438,265.008850 
	C266.525452,260.504364 266.531006,260.496338 260.068268,265.291046 
	C254.884766,269.136719 249.375946,268.976501 246.052536,264.528259 
z"/>
<path fill="#CBCBCB" opacity="1.000000" stroke="none" 
	d="
M168.981934,253.813538 
	C168.657257,253.859161 168.333527,253.936111 168.007797,253.945847 
	C159.422699,254.202545 159.422668,254.201355 156.157257,262.710388 
	C152.494049,260.617004 149.487747,260.871063 145.904617,263.311371 
	C134.769760,270.894775 122.051125,270.772858 109.396606,269.452148 
	C105.478935,269.043274 101.820732,266.533783 97.916809,265.438416 
	C96.077957,264.922455 93.539917,264.778778 92.001274,265.659241 
	C82.558716,271.062561 72.596642,270.569183 62.464016,268.878998 
	C53.917355,267.453400 48.423599,261.227936 50.275291,252.719803 
	C52.121998,244.234604 55.988789,236.183182 59.086105,227.985474 
	C59.384003,227.197037 60.504292,226.719330 61.594803,226.423431 
	C58.892361,235.351624 55.661457,243.898041 52.913464,252.596985 
	C52.265007,254.649734 52.435051,257.868744 53.664982,259.389587 
	C55.409077,261.546143 58.485035,262.625580 61.105728,264.523987 
	C65.019508,265.588165 68.839981,266.939178 72.613495,266.818756 
	C76.436150,266.696777 80.212395,265.119965 84.416473,264.109436 
	C87.734726,264.428894 89.763763,263.713959 90.394814,260.381165 
	C90.747566,258.518127 91.758995,256.779846 92.473610,254.985352 
	C94.273781,253.322113 96.815567,251.992218 97.740089,249.935379 
	C100.980614,242.726120 103.609596,235.244049 106.617073,227.925674 
	C107.071388,226.820145 108.303535,226.034271 109.519737,225.416718 
	C106.332718,235.505600 102.721581,245.250336 99.302956,255.062134 
	C97.438095,260.414459 98.745598,262.710052 104.091652,264.524292 
	C105.476654,265.519653 106.768021,266.738708 108.036049,266.714905 
	C116.701813,266.552277 125.368568,266.220947 134.017380,265.668243 
	C135.055588,265.601898 135.987854,263.877869 137.132355,262.675903 
	C137.840881,262.221405 138.386292,262.013153 139.127716,262.066589 
	C142.465439,262.201965 145.221313,261.511169 146.122070,257.550049 
	C148.585587,254.858734 150.851242,252.434128 153.458923,249.956146 
	C155.704788,247.106064 157.204605,243.882477 159.605148,241.610687 
	C163.396347,238.022873 162.208359,235.073990 159.591949,231.500931 
	C160.359329,229.407135 161.046600,227.667313 161.733856,225.927475 
	C166.641327,229.033783 171.165070,228.328506 175.604492,224.803848 
	C176.619568,223.997955 178.242691,223.957962 179.799500,223.801086 
	C169.298523,228.324142 163.670395,236.609955 162.055420,248.052338 
	C163.370728,248.052338 165.263519,248.052338 167.569580,248.484619 
	C168.315872,250.549118 168.648895,252.181320 168.981934,253.813538 
z"/>
<path fill="#050505" opacity="1.000000" stroke="none" 
	d="
M60.991817,264.165344 
	C58.485035,262.625580 55.409077,261.546143 53.664982,259.389587 
	C52.435051,257.868744 52.265007,254.649734 52.913464,252.596985 
	C55.661457,243.898041 58.892361,235.351624 61.939880,226.371490 
	C62.663731,222.644089 64.710876,221.561295 68.077118,221.919769 
	C71.040840,222.235367 74.063744,221.995178 77.525543,222.005249 
	C77.673538,223.427307 77.356506,224.844528 76.768539,226.884384 
	C73.942307,234.686218 71.470413,241.896683 68.795471,249.031036 
	C67.516068,252.443344 68.190361,254.155624 72.073647,254.011551 
	C74.723061,253.913254 77.375633,253.899994 80.026794,253.848694 
	C83.998947,253.979385 87.971092,254.110077 92.208435,254.613068 
	C91.758995,256.779846 90.747566,258.518127 90.394814,260.381165 
	C89.763763,263.713959 87.734726,264.428894 83.952805,264.032684 
	C75.718369,264.073029 68.355095,264.119202 60.991817,264.165344 
z"/>
<path fill="#C3C3C3" opacity="1.000000" stroke="none" 
	d="
M223.559235,224.055145 
	C219.426514,236.810257 214.911575,249.629349 210.157501,262.717590 
	C206.080444,260.406097 202.695053,261.427917 199.089798,263.832489 
	C192.688461,268.101898 185.501999,269.556519 177.815567,269.035797 
	C173.694992,268.756653 169.458008,269.473969 165.430573,268.801422 
	C162.844299,268.369537 160.543884,266.225922 158.047134,264.504059 
	C166.442200,264.109985 174.905411,264.050110 183.368729,264.015839 
	C193.585754,263.974457 204.895996,255.997284 208.363083,246.354935 
	C209.304642,243.736374 210.223816,241.109772 211.338867,237.963013 
	C208.146790,237.963013 205.523697,237.963013 202.504700,237.569305 
	C203.409592,235.508316 204.710373,233.841019 206.011169,232.173737 
	C211.152145,232.791931 215.073135,231.578461 216.026550,225.302383 
	C218.535141,224.690994 220.856094,224.405060 223.559235,224.055145 
z"/>
<path fill="#C9C9C9" opacity="1.000000" stroke="none" 
	d="
M378.047913,264.510803 
	C386.263977,264.121277 394.543304,264.058075 402.822784,264.035919 
	C414.804901,264.003845 425.476990,256.544220 429.516998,245.347458 
	C429.965729,244.103806 430.444580,242.871033 431.091980,241.307098 
	C435.350891,244.569046 432.350159,248.732635 431.097839,251.753464 
	C429.487885,255.636978 426.268066,259.317780 422.847321,261.902008 
	C410.852509,270.963470 397.022583,271.159393 382.971466,268.651764 
	C381.182556,268.332489 379.723297,266.166168 378.047913,264.510803 
z"/>
<path fill="#CBCBCB" opacity="1.000000" stroke="none" 
	d="
M211.049561,264.515289 
	C215.449768,264.172913 219.913879,264.172913 224.501785,264.172913 
	C225.687592,261.149933 226.761490,258.412262 228.348846,255.295380 
	C231.133774,253.370499 233.236038,251.435196 235.711853,250.360153 
	C240.896637,248.108749 243.664642,252.600906 247.128693,255.037231 
	C246.689163,256.554199 246.249649,258.071167 245.584335,259.836823 
	C244.298508,259.180328 243.006287,258.441040 242.219879,257.340363 
	C239.291367,253.241516 235.864517,252.973038 232.711472,256.980499 
	C231.196899,258.905457 230.157242,261.197510 228.823425,263.272491 
	C224.380371,270.184296 216.519165,270.875153 211.049561,264.515289 
z"/>
<path fill="#C9C9C9" opacity="1.000000" stroke="none" 
	d="
M429.018677,232.177795 
	C431.743927,231.967941 435.007538,232.708313 435.741821,228.259735 
	C436.573303,228.794388 437.804382,229.967163 437.602417,230.320343 
	C436.098358,232.950058 434.310272,235.417313 432.254883,237.983719 
	C430.215698,238.008026 428.532898,237.984131 426.479553,237.569748 
	C427.078888,235.512115 428.048767,233.844955 429.018677,232.177795 
z"/>
<path fill="#C9C9C9" opacity="1.000000" stroke="none" 
	d="
M394.884644,226.950928 
	C393.638977,228.154037 392.208160,229.099731 390.454041,230.111267 
	C391.653656,229.015900 393.176575,227.854706 394.884644,226.950928 
z"/>
<path fill="#C9C9C9" opacity="1.000000" stroke="none" 
	d="
M398.819824,224.803040 
	C398.549744,225.368195 398.095306,225.722534 397.342041,226.090942 
	C397.573975,225.600739 398.104736,225.096466 398.819824,224.803040 
z"/>
<path fill="#040404" opacity="1.000000" stroke="none" 
	d="
M308.015411,253.820984 
	C310.291962,253.943665 312.568481,254.066330 315.285797,254.212753 
	C314.079407,257.582825 312.980804,260.651733 311.769592,264.035248 
	C310.113800,264.035248 308.479126,264.035248 305.962158,264.030823 
	C297.384003,264.082947 289.688141,264.139557 281.992279,264.196167 
	C275.704163,263.351135 271.013214,258.921753 271.242798,253.147339 
	C274.670715,243.326614 277.849304,234.169144 281.027893,225.011673 
	C282.445190,224.004608 283.848541,222.146347 285.281952,222.122833 
	C298.839233,221.900482 312.401611,221.990494 326.260040,221.990494 
	C326.113831,223.173416 326.000183,224.092758 325.812012,225.471008 
	C324.528503,230.499298 322.078857,233.271271 315.980957,232.035751 
	C309.073151,232.050491 303.056671,232.078766 296.655975,232.017487 
	C291.362152,231.737122 292.735870,235.735992 291.467560,238.850082 
	C293.403687,238.706406 294.775787,238.604568 296.599792,238.562042 
	C301.387177,238.517883 305.722656,238.414398 310.058167,238.310913 
	C312.619568,238.520554 315.180939,238.730179 318.399567,238.993591 
	C315.686096,242.302002 317.895020,248.752472 309.969421,248.032532 
	C305.067322,248.072769 301.035645,248.124146 296.560089,248.101776 
	C295.450256,248.023071 294.771515,247.931747 294.120544,248.028137 
	C291.361572,248.436661 286.745514,246.406876 287.178345,251.588898 
	C287.533020,255.835480 291.556061,253.439972 294.464233,253.897995 
	C299.287659,253.920639 303.651550,253.870819 308.015411,253.820984 
z"/>
<path fill="#050505" opacity="1.000000" stroke="none" 
	d="
M153.116882,250.009521 
	C150.851242,252.434128 148.585587,254.858734 145.776886,257.602173 
	C143.133133,259.215637 141.032425,260.510284 138.931702,261.804871 
	C138.386292,262.013153 137.840881,262.221405 136.715668,262.724976 
	C134.032761,263.348114 131.934219,263.921661 129.825806,263.960724 
	C121.214584,264.120331 112.600342,264.116577 103.987213,264.172974 
	C98.745598,262.710052 97.438095,260.414459 99.302956,255.062134 
	C102.721581,245.250336 106.332718,235.505600 109.859810,225.360123 
	C111.428207,223.987000 112.917183,222.336884 114.590012,222.122681 
	C117.990791,221.687241 121.490875,222.027435 125.404999,222.094818 
	C125.429504,223.486801 124.999054,224.831940 124.311241,226.809235 
	C121.660454,234.155350 119.243668,240.861084 116.880600,247.585709 
	C114.808235,253.483109 115.115158,253.934052 121.077919,253.992157 
	C124.566841,254.026154 128.061279,253.893753 131.544037,254.046432 
	C134.819305,254.190033 136.919159,252.882935 138.002274,249.789368 
	C140.901474,241.508652 143.839172,233.241425 146.761597,224.968842 
	C148.187042,223.975052 149.532333,222.303207 151.054016,222.123322 
	C154.637970,221.699600 158.306046,221.987503 162.245193,221.987503 
	C162.100342,223.176697 161.988510,224.094910 161.805267,225.470306 
	C161.046600,227.667313 160.359329,229.407135 159.397980,231.783585 
	C157.121567,238.283310 155.119232,244.146423 153.116882,250.009521 
z"/>
<path fill="#C3C3C3" opacity="1.000000" stroke="none" 
	d="
M146.423813,225.027817 
	C143.839172,233.241425 140.901474,241.508652 138.002274,249.789368 
	C136.919159,252.882935 134.819305,254.190033 131.544037,254.046432 
	C128.061279,253.893753 124.566841,254.026154 121.077919,253.992157 
	C115.115158,253.934052 114.808235,253.483109 116.880600,247.585709 
	C119.243668,240.861084 121.660454,234.155350 124.232803,227.156372 
	C124.686127,230.116226 125.377296,233.395721 125.111488,236.595703 
	C124.871246,239.487961 123.814445,242.387100 122.699371,245.112015 
	C121.459213,248.142609 122.730133,250.419891 125.127892,251.186386 
	C127.138229,251.829056 130.956192,251.636719 131.764664,250.386047 
	C135.283173,244.942963 137.923019,238.939240 141.028748,233.218826 
	C142.549164,230.418365 144.390152,227.791962 146.423813,225.027817 
z"/>
<path fill="#C3C3C3" opacity="1.000000" stroke="none" 
	d="
M280.592285,225.014023 
	C277.849304,234.169144 274.670715,243.326614 271.243469,252.741455 
	C268.306732,253.994522 265.618591,254.990204 262.562378,255.997498 
	C265.750763,245.880829 269.307220,235.752533 273.045746,225.299805 
	C275.537415,224.989044 277.847076,225.002701 280.592285,225.014023 
z"/>
<path fill="#C3C3C3" opacity="1.000000" stroke="none" 
	d="
M257.389282,226.019806 
	C257.713928,226.129272 257.747375,226.306580 257.699219,226.457855 
	C253.377716,240.025421 253.377274,240.025284 233.991470,238.719925 
	C235.310608,234.927795 236.580872,231.276199 238.036972,227.300690 
	C239.104630,228.423767 240.321472,229.766632 240.809387,231.336090 
	C242.756577,237.599564 246.014282,238.582123 250.573990,233.893616 
	C252.927383,231.473709 254.909866,228.693100 257.389282,226.019806 
z"/>
<path fill="#C9C9C9" opacity="1.000000" stroke="none" 
	d="
M370.883667,221.457214 
	C365.313599,221.881775 359.611389,221.936798 353.446594,221.909241 
	C353.349945,221.321472 353.729065,220.367783 354.079834,220.378098 
	C359.639221,220.541626 365.195007,220.828781 370.883667,221.457214 
z"/>
<path fill="#BCBCBC" opacity="1.000000" stroke="none" 
	d="
M79.928024,253.526459 
	C77.375633,253.899994 74.723061,253.913254 72.073647,254.011551 
	C68.190361,254.155624 67.516068,252.443344 68.795471,249.031036 
	C71.470413,241.896683 73.942307,234.686218 76.751274,227.253998 
	C81.052444,229.931137 77.877243,233.347214 77.523987,236.509766 
	C77.367302,237.912521 76.078880,239.156891 75.743156,240.576935 
	C74.005516,247.926651 72.773849,248.677902 79.928024,253.526459 
z"/>
<path fill="#BCBCBC" opacity="1.000000" stroke="none" 
	d="
M374.550903,232.094177 
	C373.999084,234.008499 372.983582,235.843994 371.898499,238.041107 
	C366.105957,238.424042 360.382965,238.445374 353.984741,238.576660 
	C350.568634,237.507019 348.677490,237.957443 346.524567,240.492310 
	C342.847015,244.822174 341.753601,248.953949 345.014679,253.835495 
	C338.608246,254.083282 338.049530,253.479889 340.282959,247.593018 
	C347.400574,228.832657 342.710907,232.377380 362.136597,232.021545 
	C366.118835,231.948593 370.103577,232.013809 374.550903,232.094177 
z"/>
<path fill="#CBCBCB" opacity="1.000000" stroke="none" 
	d="
M345.453369,253.901367 
	C341.753601,248.953949 342.847015,244.822174 346.524567,240.492310 
	C348.677490,237.957443 350.568634,237.507019 353.652588,238.842499 
	C353.366180,241.006119 352.623199,242.989395 352.181610,245.037628 
	C352.060913,245.597504 352.845032,246.352478 353.604370,247.469482 
	C353.657684,249.889786 353.320557,251.858521 352.983398,253.827271 
	C350.619629,253.873917 348.255829,253.920578 345.453369,253.901367 
z"/>
<path fill="#BCBCBC" opacity="1.000000" stroke="none" 
	d="
M353.354156,253.904083 
	C353.320557,251.858521 353.657684,249.889786 353.989563,247.541092 
	C355.775787,247.161133 357.567291,247.161133 359.864838,247.161133 
	C358.931549,250.679031 358.145294,253.842606 353.354156,253.904083 
z"/>
<path fill="#B8B8B8" opacity="1.000000" stroke="none" 
	d="
M428.555145,232.095779 
	C428.048767,233.844955 427.078888,235.512115 426.063904,237.503845 
	C417.883881,237.828415 409.748962,237.828415 401.344757,237.828415 
	C401.659607,233.811111 403.660889,231.958206 407.645721,231.996185 
	C414.460449,232.061127 421.276276,232.013885 428.555145,232.095779 
z"/>
<path fill="#B8B8B8" opacity="1.000000" stroke="none" 
	d="
M390.444275,253.904434 
	C389.655151,252.183563 389.329315,250.544907 388.991852,248.544861 
	C396.930054,248.183487 404.879852,248.183487 413.071411,248.183487 
	C412.634155,252.167374 410.757141,254.058990 406.900024,254.008331 
	C401.570007,253.938263 396.238434,253.988129 390.444275,253.904434 
z"/>
<path fill="#B8B8B8" opacity="1.000000" stroke="none" 
	d="
M205.547577,232.095581 
	C204.710373,233.841019 203.409592,235.508316 202.060516,237.501389 
	C194.911530,237.827179 187.810822,237.827179 180.496872,237.827179 
	C180.987259,233.607651 183.177948,231.908401 187.160828,231.983627 
	C193.133301,232.096481 199.109421,232.015823 205.547577,232.095581 
z"/>
<path fill="#BCBCBC" opacity="1.000000" stroke="none" 
	d="
M169.444305,253.895889 
	C168.648895,252.181320 168.315872,250.549118 167.982239,248.553406 
	C172.679230,248.139297 177.376846,248.088684 182.606659,248.424103 
	C184.090973,250.479904 185.043106,252.149658 185.995224,253.819427 
	C180.632385,253.872360 175.269531,253.925293 169.444305,253.895889 
z"/>
<path fill="#B8B8B8" opacity="1.000000" stroke="none" 
	d="
M186.367004,253.892609 
	C185.043106,252.149658 184.090973,250.479904 183.067719,248.496399 
	C186.104141,248.182678 189.211700,248.182678 192.466232,248.182678 
	C191.891830,251.691574 190.508179,254.023697 186.367004,253.892609 
z"/>
<path fill="#B8B8B8" opacity="1.000000" stroke="none" 
	d="
M247.390076,254.804962 
	C243.664642,252.600906 240.896637,248.108749 235.711853,250.360153 
	C233.236038,251.435196 231.133774,253.370499 228.525024,254.969391 
	C229.322540,251.629425 230.457352,248.236221 231.856842,244.051590 
	C236.871857,250.518005 243.450256,246.922256 249.613144,248.377518 
	C248.968002,250.414932 248.309723,252.493820 247.390076,254.804962 
z"/>
<path fill="#BCBCBC" opacity="1.000000" stroke="none" 
	d="
M310.079163,237.989609 
	C305.722656,238.414398 301.387177,238.517883 296.549225,238.202240 
	C296.377930,235.891083 296.709045,233.999054 297.040161,232.107025 
	C303.056671,232.078766 309.073151,232.050491 315.552643,232.103745 
	C314.043854,234.012939 312.072021,235.840622 310.079163,237.989609 
z"/>
<path fill="#BCBCBC" opacity="1.000000" stroke="none" 
	d="
M308.021698,253.477295 
	C303.651550,253.870819 299.287659,253.920639 294.512634,253.573700 
	C295.068939,251.509811 296.036438,249.842682 297.003937,248.175537 
	C301.035645,248.124146 305.067322,248.072769 309.557190,248.101685 
	C309.352905,249.832550 308.690460,251.483078 308.021698,253.477295 
z"/>
<path fill="#C3C3C3" opacity="1.000000" stroke="none" 
	d="
M282.101196,264.546448 
	C289.688141,264.139557 297.384003,264.082947 305.543457,264.102692 
	C303.188599,265.000061 300.363556,266.516998 297.553040,266.490570 
	C292.434174,266.442444 287.323914,265.478516 282.101196,264.546448 
z"/>
<path fill="#BFBFBF" opacity="1.000000" stroke="none" 
	d="
M104.091652,264.524292 
	C112.600342,264.116577 121.214584,264.120331 129.825806,263.960724 
	C131.934219,263.921661 134.032761,263.348114 136.552521,262.971252 
	C135.987854,263.877869 135.055588,265.601898 134.017380,265.668243 
	C125.368568,266.220947 116.701813,266.552277 108.036049,266.714905 
	C106.768021,266.738708 105.476654,265.519653 104.091652,264.524292 
z"/>
<path fill="#BFBFBF" opacity="1.000000" stroke="none" 
	d="
M153.458939,249.956146 
	C155.119232,244.146423 157.121567,238.283310 159.317841,232.137543 
	C162.208359,235.073990 163.396347,238.022873 159.605148,241.610687 
	C157.204605,243.882477 155.704788,247.106064 153.458939,249.956146 
z"/>
<path fill="#C3C3C3" opacity="1.000000" stroke="none" 
	d="
M61.105728,264.523987 
	C68.355095,264.119202 75.718369,264.073029 83.545311,264.103638 
	C80.212395,265.119965 76.436150,266.696777 72.613495,266.818756 
	C68.839981,266.939178 65.019508,265.588165 61.105728,264.523987 
z"/>
<path fill="#BFBFBF" opacity="1.000000" stroke="none" 
	d="
M139.127716,262.066589 
	C141.032425,260.510284 143.133133,259.215637 145.579025,257.868896 
	C145.221313,261.511169 142.465439,262.201965 139.127716,262.066589 
z"/>
<path fill="#B8B8B8" opacity="1.000000" stroke="none" 
	d="
M296.560089,248.101791 
	C296.036438,249.842682 295.068939,251.509811 294.053070,253.501236 
	C291.556061,253.439972 287.533020,255.835480 287.178345,251.588898 
	C286.745514,246.406876 291.361572,248.436661 294.120544,248.028137 
	C294.771515,247.931747 295.450256,248.023071 296.560089,248.101791 
z"/>
<path fill="#8A8A8A" opacity="1.000000" stroke="none" 
	d="
M296.655945,232.017487 
	C296.709045,233.999054 296.377930,235.891083 296.097351,238.142929 
	C294.775787,238.604568 293.403687,238.706406 291.467560,238.850082 
	C292.735870,235.735992 291.362152,231.737122 296.655945,232.017487 
z"/>
</svg>